<?xml version="1.0" encoding="utf-8"?>
<!-- Generator: Adobe Illustrator 19.0.0, SVG Export Plug-In . SVG Version: 6.00 Build 0)  -->
<svg version="1.1" id="layer" xmlns="http://www.w3.org/2000/svg" xmlns:xlink="http://www.w3.org/1999/xlink" x="0px" y="0px"
	 viewBox="-153 -46 652 652" style="enable-background:new -153 -46 652 652;" xml:space="preserve">
<style type="text/css">
	.st0{fill:#002E15;}
	.st1{fill:#E73937;}
	.st2{fill:#514948;}
</style>
<path class="st0" d="M402.1,200.7h-38.4c-8.9,0-13-7.9-13-14.2c0-6.7,4.1-13.1,13-13.1h98.5v-60.1H330.5
	c-51.1,0-71.2,29.6-71.2,68.3c0,38.7,20.1,68.3,71.2,68.3h37.3c8.6,0,13,7.9,13,14.2c0,6.7-4.5,13.1-13,13.1H265.4v60.1h138.5
	c49.6,0,69.7-26,69.7-68.1c0-42.1-20.1-68.4-69.7-68.4 M145.2,189.8H96v-76.5H3.1v224.1H96v-82h49.2v82h98.4V113.3h-98.4V189.8z
	 M-122.6,206.2v131.2h98.4V113.3h-1.1c-53.7,0-97.3,41.4-97.3,95.1"/>
<path class="st1" d="M-62.5,113.3h-29.2c-12.1,5.5-25.4,16.6-30.9,28.7v28.4c10.9-27.1,32.2-51.4,59.3-56.9 M-122.6,113.3V130
	c5.5-6.9,12.2-12.1,19.2-16.7H-122.6z"/>
<path class="st2" d="M435.6,431.3h6.5v-20.4c0-5.1,1.1-8.6,3.3-10.5c2.2-1.8,4.6-2.8,7.3-2.8c3.2,0,5.4,1.1,6.6,3.2
	c0.7,1.3,1.1,3.4,1.1,6.2v24.3h6.6v-24.7c0-3.8-0.5-6.7-1.6-8.9c-2-3.9-5.8-5.9-11.4-5.9c-3.1,0-5.7,0.7-7.8,2
	c-1.2,0.8-2.6,2.2-4.1,4.1v-19.7h-6.5V431.3z M414.4,392.8h-5.2v5.3h5.2v25.5c0,2.5,0.5,4.5,1.6,6c1.1,1.5,3.1,2.3,6.1,2.3
	c0.9,0,1.8,0,2.6-0.1c0.8-0.1,1.6-0.3,2.3-0.5v-5.1c-0.5,0.1-0.9,0.1-1.3,0.1c-0.4,0-0.7,0-1,0c-1.2,0-2-0.1-2.5-0.4
	c-0.9-0.5-1.4-1.4-1.4-2.7v-25.1h6.1v-5.3h-6.1V382h-6.5V392.8z M397,411.9c0,3.2-0.5,5.9-1.6,8.3c-1.9,4.2-5.1,6.3-9.8,6.3
	c-3,0-5.3-1.1-7.1-3.4c-1.8-2.3-2.6-5.6-2.6-9.9c0-3.7,0.4-6.7,1.3-8.9c1.7-4.3,4.8-6.4,9.3-6.4c3,0,5.5,1.2,7.5,3.5
	C396,403.6,397,407.1,397,411.9 M385.4,392.1c-4.4,0-8.2,1.8-11.4,5.4c-3.1,3.6-4.7,8.7-4.7,15.1c0,6.8,1.6,11.7,4.7,14.7
	c3.1,3,6.7,4.4,10.9,4.4c3,0,5.4-0.5,7.2-1.4c1.8-1,3.4-2.4,4.7-4.4c0.1,5.3-0.4,9-1.3,11c-1.5,3.5-4.8,5.2-9.7,5.2
	c-3.1,0-5.4-0.7-6.9-2.2c-0.9-0.9-1.6-2.3-1.9-4h-6.6c0.3,4,1.9,6.9,4.7,8.7s6.3,2.8,10.4,2.8c7.4,0,12.5-2.6,15.2-7.8
	c1.4-2.8,2.1-6.7,2.1-11.6v-35h-6v4.9c-1.3-1.6-2.5-2.8-3.7-3.7C391,392.8,388.4,392.1,385.4,392.1 M331.5,431.3h6.5v-20.2
	c0-2.5,0.2-4.5,0.5-5.8c0.3-1.4,1-2.7,2.1-3.9c1.3-1.6,2.9-2.6,4.7-3.2c1-0.3,2.2-0.5,3.8-0.5c3,0,5.1,1.2,6.3,3.6
	c0.7,1.4,1,3.3,1,5.7v24.3h6.6v-24.7c0-3.9-0.5-6.9-1.6-8.9c-1.9-3.8-5.6-5.7-11.1-5.7c-2.5,0-4.8,0.5-6.8,1.5c-2,1-4,2.6-5.8,4.9
	v-5.5h-6.2V431.3z M296.9,409c0.1-3.3,1.2-6,3.2-8.2c2-2.1,4.5-3.2,7.4-3.2c4.1,0,7,1.6,8.8,4.7c1,1.7,1.6,3.9,1.8,6.7H296.9z
	 M307.9,391.9c-5.4,0-9.7,1.9-13.1,5.8c-3.3,3.9-5,8.9-5,15.1c0,6.3,1.7,11.2,5,14.6c3.3,3.5,7.4,5.2,12.1,5.2
	c1.9,0,3.7-0.2,5.2-0.6c2.9-0.7,5.3-2,7.2-3.9c1.2-1.1,2.2-2.5,3.2-4.3c0.9-1.7,1.5-3.3,1.7-4.7h-6.4c-0.5,1.7-1.3,3.2-2.4,4.5
	c-2,2.2-4.7,3.4-8,3.4c-3.6,0-6.2-1.2-7.9-3.5c-1.7-2.4-2.6-5.5-2.8-9.4h28c0-3.9-0.2-6.7-0.6-8.5c-0.4-2.6-1.3-4.9-2.6-6.8
	c-1.3-2-3.3-3.7-5.8-5C313.3,392.6,310.6,391.9,307.9,391.9 M268.3,431.3h6.5v-22.1c0-2.7,0.9-5.1,2.6-7.2c1.8-2.1,4.3-3.1,7.5-3.1
	c0.4,0,0.7,0,1.1,0c0.3,0,0.7,0.1,1.1,0.1v-6.8c-0.7-0.1-1.2-0.1-1.5-0.1s-0.5,0-0.6,0c-2.6,0-4.8,0.9-6.8,2.8
	c-2,1.9-3.2,3.4-3.7,4.7v-6.6h-6.1V431.3z M247.2,392.8H242v5.3h5.2v25.5c0,2.5,0.5,4.5,1.6,6c1.1,1.5,3.1,2.3,6.2,2.3
	c0.9,0,1.8,0,2.6-0.1c0.8-0.1,1.6-0.3,2.3-0.5v-5.1c-0.5,0.1-0.9,0.1-1.3,0.1c-0.4,0-0.7,0-1,0c-1.2,0-2-0.1-2.5-0.4
	c-0.9-0.5-1.4-1.4-1.4-2.7v-25.1h6.1v-5.3h-6.1V382h-6.5V392.8z M206.4,419.2c0.2,3.8,1.5,7.1,3.9,9.7c2.4,2.6,6.5,3.9,12.3,3.9
	c5.4,0,9.4-1.2,12-3.7c2.6-2.5,3.9-5.4,3.9-8.9c0-3.6-1.3-6.2-3.8-7.8c-1.6-1.1-4.8-2.1-9.5-3.3l-4.4-1c-1.9-0.5-3.3-1-4.3-1.6
	c-1.7-1-2.5-2.3-2.5-4c0-1.5,0.6-2.8,1.9-3.7c1.3-0.9,3.2-1.4,5.7-1.4c3.8,0,6.4,0.8,7.9,2.5c0.9,1.2,1.5,2.5,1.6,4h6.1
	c0-2.5-0.7-4.8-2.4-7c-2.6-3.4-6.8-5.1-12.7-5.1c-4.5,0-8.1,1.1-10.7,3.4c-2.7,2.3-4,5.2-4,8.8c0,3.1,1.4,5.5,4.2,7.3
	c1.6,1,4,1.9,7.4,2.7l5.2,1.3c2.8,0.7,4.7,1.3,5.6,1.8c1.5,0.9,2.2,2.1,2.2,3.8c0,2.2-0.9,3.8-2.8,4.8c-1.9,1-4,1.6-6.5,1.6
	c-4.1,0-7-1-8.7-3.1c-0.9-1.2-1.5-2.8-1.6-5H206.4z M169.5,386.9v6h-5.3v5.1h5.3v33.2h6.4v-33.2h6.5V393h-6.5c0-4.2,0.2-6.8,0.6-7.8
	c0.4-1,1.6-1.5,3.6-1.5c0.3,0,0.6,0,0.9,0c0.3,0,0.8,0,1.5,0.1v-5.9c-0.6,0-1-0.1-1.5-0.1c-0.4,0-0.9,0-1.3,0
	c-4.3,0-7.2,1.1-8.7,3.3C170.1,382.3,169.6,384.2,169.5,386.9 M142.4,391.7c-5.5,0-9.9,1.9-13.1,5.7c-3.3,3.8-4.9,9-4.9,15.4
	c0,6,1.5,10.8,4.6,14.4c3.1,3.6,7.3,5.4,12.5,5.4c6.3,0,11-2,14-6.1c3-4,4.5-9.2,4.5-15.4c0-6.4-1.7-11.3-5.1-14.6
	C151.4,393.3,147.3,391.7,142.4,391.7 M142.1,427.1c-3.9,0-6.7-1.4-8.5-4.1c-1.8-2.7-2.7-6.1-2.7-10.2c0-4.3,0.9-7.9,2.7-10.9
	c1.8-3,4.6-4.5,8.5-4.5c4.4,0,7.5,1.8,9.3,5.3c1.1,2.2,1.7,5.2,1.7,8.8c0,4-0.8,7.6-2.4,10.8C149.3,425.4,146.3,427.1,142.1,427.1
	 M67.3,419.2c0.2,3.8,1.5,7.1,3.9,9.7c2.4,2.6,6.5,3.9,12.3,3.9c5.4,0,9.4-1.2,12-3.7c2.6-2.5,4-5.4,4-8.9c0-3.6-1.3-6.2-3.8-7.8
	c-1.6-1.1-4.8-2.1-9.5-3.3l-4.4-1c-1.9-0.5-3.3-1-4.3-1.6c-1.7-1-2.5-2.3-2.5-4c0-1.5,0.6-2.8,1.9-3.7c1.3-0.9,3.2-1.4,5.7-1.4
	c3.8,0,6.4,0.8,7.9,2.5c0.9,1.2,1.5,2.5,1.6,4h6.1c0-2.5-0.7-4.8-2.4-7c-2.6-3.4-6.8-5.1-12.7-5.1c-4.5,0-8.1,1.1-10.7,3.4
	c-2.7,2.3-4,5.2-4,8.8c0,3.1,1.4,5.5,4.2,7.3c1.6,1,4,1.9,7.4,2.7l5.2,1.3c2.8,0.7,4.7,1.3,5.6,1.8c1.5,0.9,2.2,2.1,2.2,3.8
	c0,2.2-0.9,3.8-2.8,4.8s-4,1.6-6.5,1.6c-4.1,0-7-1-8.7-3.1c-0.9-1.2-1.5-2.8-1.7-5H67.3z M45.1,431.3h6.5v-22.1
	c0-2.7,0.9-5.1,2.6-7.2c1.8-2.1,4.2-3.1,7.5-3.1c0.4,0,0.7,0,1.1,0c0.3,0,0.7,0.1,1.1,0.1v-6.8c-0.7-0.1-1.2-0.1-1.5-0.1
	c-0.3,0-0.5,0-0.6,0c-2.6,0-4.8,0.9-6.8,2.8c-2,1.9-3.2,3.4-3.7,4.7v-6.6h-6.1V431.3z M10,409c0.1-3.3,1.2-6,3.2-8.2
	c2-2.1,4.5-3.2,7.4-3.2c4.1,0,7,1.6,8.8,4.7c0.9,1.7,1.6,3.9,1.8,6.7H10z M21,391.9c-5.4,0-9.7,1.9-13.1,5.8c-3.3,3.9-5,8.9-5,15.1
	c0,6.3,1.7,11.2,5,14.6c3.3,3.5,7.3,5.2,12.1,5.2c2,0,3.7-0.2,5.2-0.6c2.9-0.7,5.3-2,7.2-3.9c1.2-1.1,2.2-2.5,3.2-4.3
	c0.9-1.7,1.5-3.3,1.7-4.7H31c-0.5,1.7-1.3,3.2-2.4,4.5c-2,2.2-4.7,3.4-8,3.4c-3.6,0-6.2-1.2-8-3.5c-1.7-2.4-2.6-5.5-2.7-9.4h28
	c0-3.9-0.2-6.7-0.6-8.5c-0.4-2.6-1.3-4.9-2.6-6.8c-1.3-2-3.3-3.7-5.8-5C26.4,392.6,23.7,391.9,21,391.9 M-50.3,392.8l11.1,38.5h6.7
	l7.6-29.8l7.8,29.8h6.7l11.2-38.5h-6.5l-7.9,30.2l-7.6-30.2h-7.3l-7.5,30.3l-7.4-30.3H-50.3z M-70.9,391.7c-5.5,0-9.9,1.9-13.1,5.7
	c-3.3,3.8-4.9,9-4.9,15.4c0,6,1.6,10.8,4.6,14.4c3.1,3.6,7.3,5.4,12.5,5.4c6.3,0,11-2,14-6.1c3-4,4.5-9.2,4.5-15.4
	c0-6.4-1.7-11.3-5.1-14.6C-61.8,393.3-66,391.7-70.9,391.7 M-71.2,427.1c-3.9,0-6.7-1.4-8.5-4.1c-1.8-2.7-2.7-6.1-2.7-10.2
	c0-4.3,0.9-7.9,2.7-10.9c1.8-3,4.6-4.5,8.5-4.5c4.4,0,7.5,1.8,9.3,5.3c1.1,2.2,1.7,5.2,1.7,8.8c0,4-0.8,7.6-2.4,10.8
	C-64,425.4-66.9,427.1-71.2,427.1 M-126.4,378.5v6.3h17.8v46.5h7.2v-46.5h17.8v-6.3H-126.4z"/>
</svg>
